<svg height="512pt" viewBox="0 0 512.00154 512" width="512pt" xmlns="http://www.w3.org/2000/svg"><path d="m301.019531 331.046875c-17.355469-17.285156-45.59375-17.285156-62.949219 0 0 0-21.957031 18.960937-30.320312 37.695313-7.816406-1.066407-24.765625-5.285157-41.738281-22.191407-16.894531-16.832031-21.179688-33.65625-22.261719-41.46875 21.53125-10.777343 37.824219-30.234375 37.824219-30.234375 8.417969-8.386718 27.269531-35.523437 0-62.789062l-55.277344-55.066406c-2.933594-2.925782-7.679687-2.914063-10.605469.019531-2.921875 2.933593-2.914062 7.679687.023438 10.605469l55.273437 55.066406c20.601563 20.601562-2.523437 44.050781-2.523437 44.050781l-118.273438-118.273437s22.335938-23.949219 44.035156-2.246094c2.929688 2.925781 7.683594 2.910156 10.609376-.019532 2.921874-2.9375 2.914062-7.683593-.023438-10.609374-17.355469-17.289063-45.375-17.570313-62.949219 0-16.019531 16.023437-34.347656 31.167968-39.914062 70.03125-.554688 3.402343-5.042969 33.472656 1.832031 75.125 6.59375 39.929687 25.386719 98.421874 77.480469 150.316406 52.085937 51.890625 114.15625 80.941406 196.511719 80.941406 69.367187 0 100.007812-41.691406 100.007812-41.691406 23.632812-32.304688 8.417969-54.40625 0-62.792969zm-261.421875-171.964844 118.203125 118.199219c-32.792969 31.015625-84.785156 30.527344-116.945312-1.511719-15.820313-15.761719-24.535157-36.714843-24.535157-59.003906 0-21.675781 8.265626-42.078125 23.277344-57.683594zm52.25 261.351563c-64.664062-64.667969-74.039062-147.046875-74.402344-149.710938 3.6875 5.585938 35.824219 61.359375 112.085938 40 2.148438 10.9375 8.296875 28.925782 25.898438 46.457032 17.613281 17.546874 35.679687 23.664062 46.640624 25.792968-7.117187 22.851563-5.898437 48.070313 4.578126 70.632813 1.746093 3.757812 6.203124 5.390625 9.960937 3.640625 3.757813-1.746094 5.390625-6.203125 3.644531-9.960938-14.429687-31.0625-8.144531-68.085937 15.546875-92.75l118.207031 118.207032c-32.792968 31.011718-84.785156 30.527343-116.945312-1.507813-2.933594-2.925781-7.683594-2.917969-10.605469.019531-2.921875 2.933594-2.914062 7.683594.023438 10.605469 4.859375 4.84375 10.105469 9.070313 15.640625 12.691406-2.480469-.335937-81.335938-5.179687-150.273438-74.117187zm272.824219 41.761718-118.273437-118.273437s23.40625-22.878906 44.035156-2.246094l76.761718 76.46875c19.332032 19.332031-2.523437 44.050781-2.523437 44.050781zm0 0"/><path d="m483.265625 62.765625c-2.421875-3.363281-7.109375-4.121094-10.46875-1.699219s-4.121094 7.109375-1.699219 10.46875c18.945313 26.277344 28 58.617188 25.496094 91.066406-2.53125 32.792969-16.804688 63.683594-40.1875 86.976563-20.246094 20.171875-45.796875 33.433594-73.890625 38.355469-27.476563 4.8125-55.40625 1.390625-80.769531-9.898438-13.988282-6.226562-29.6875-7.050781-44.203125-2.316406l-20.511719 6.691406c-2.8125.917969-5.738281.21875-7.828125-1.875-2.054687-2.058594-2.742187-4.9375-1.835937-7.695312l6.714843-20.429688c4.773438-14.535156 3.996094-30.089844-2.195312-43.808594-23.878907-52.90625-11.777344-115.574218 30.113281-155.9375 51.101562-49.242187 138.3125-50.222656 190.445312-2.144531 3.046876 2.808594 7.792969 2.617188 10.597657-.429687 2.808593-3.042969 2.617187-7.789063-.429688-10.597656-27.660156-25.507813-64.542969-39.492188-104.054687-39.492188-.632813 0-1.273438.00390625-1.90625.0117188-40.214844.4570312-77.527344 15.3203122-105.058594 41.8515622-23.230469 22.382813-38.570312 50.878907-44.355469 82.40625-5.648437 30.777344-1.855469 62.074219 10.976563 90.5 4.644531 10.292969 5.21875 21.996094 1.617187 32.957031l-6.714843 20.429688c-2.667969 8.117188-.570313 16.921875 5.46875 22.976562 6.070312 6.082032 14.921874 8.203126 23.097656 5.539063l20.507812-6.691406c10.984375-3.582031 22.660156-2.472657 33.457032 1.757812 40.789062 15.988281 80.507812 12.539063 89.457031 10.972657 31.136719-5.457032 59.453125-20.15625 81.886719-42.503907 25.925781-25.824219 41.75-60.082031 44.554687-96.453125 2.777344-35.976562-7.265625-71.839844-28.28125-100.988281zm0 0"/><path d="m279.167969 183.179688v29.8125c0 19.511718 15.875 35.386718 35.390625 35.386718 19.511718 0 35.390625-15.875 35.390625-35.386718v-29.8125c0-25.714844-27.894531-23.09375-27.894531-23.09375v-12.871094c15.925781-3.449219 27.890624-17.644532 27.890624-34.585938v-33.960937c0-4.144531-3.355468-7.5-7.5-7.5-4.140624 0-7.5 3.355469-7.5 7.5v33.960937c0 8.597656-5.347656 15.949219-12.890624 18.945313v-52.90625c0-4.144531-3.355469-7.5-7.5-7.5-4.140626 0-7.5 3.355469-7.5 7.5v52.90625c-7.539063-2.996094-12.890626-10.347657-12.890626-18.945313v-33.960937c0-4.144531-3.359374-7.5-7.5-7.5-4.140624 0-7.5 3.355469-7.5 7.5v33.960937c0 16.941406 11.96875 31.136719 27.890626 34.585938v12.871094c.003906 0-27.886719-4.25-27.886719 23.09375zm55.78125 0v29.8125c0 11.242187-9.148438 20.390624-20.390625 20.390624-11.246094 0-20.394532-9.148437-20.394532-20.390624v-29.8125c0-4.464844 3.632813-8.09375 8.09375-8.09375h24.597657c4.464843-.003907 8.09375 3.628906 8.09375 8.09375zm0 0"/><path d="m445.058594 120.921875c0-10.339844-3.761719-23.316406-9.8125-33.859375-7.59375-13.230469-17.460938-20.515625-27.785156-20.515625-10.324219 0-20.195313 7.285156-27.789063 20.515625-6.050781 10.542969-9.808594 23.519531-9.808594 33.859375 0 17.96875 11.816407 30.71875 30.097657 33.429687v5.734376s-27.890626-2.621094-27.890626 23.09375v29.8125c0 19.511718 15.875 35.386718 35.390626 35.386718 19.515624 0 35.390624-15.875 35.390624-35.386718v-29.8125c0-25.714844-27.890624-23.09375-27.890624-23.09375v-5.734376c18.277343-2.714843 30.097656-15.460937 30.097656-33.429687zm-17.207032 62.257813v29.8125c0 11.242187-9.148437 20.390624-20.390624 20.390624-11.246094 0-20.394532-9.148437-20.394532-20.390624v-29.8125c0-4.464844 3.632813-8.09375 8.09375-8.09375h24.597656c4.464844-.003907 8.09375 3.628906 8.09375 8.09375zm-42.988281-62.257813c0-15.546875 12.121094-39.375 22.597657-39.375 10.476562 0 22.597656 23.828125 22.597656 39.375 0 17.128906-15.804688 18.976563-22.597656 18.976563-6.796876 0-22.597657-1.847657-22.597657-18.976563zm0 0"/></svg>